<mxfile host="app.diagrams.net" modified="2021-02-10T08:22:02.685Z" agent="5.0 (Windows NT 10.0; Win64; x64) AppleWebKit/537.36 (KHTML, like Gecko) Chrome/88.0.4324.146 Safari/537.36" etag="dRY8Td-QTQted-eipvMe" version="14.3.0" type="github">
  <diagram id="27-AQSPb0Ylb-72iNUoD" name="Page-1">
    <mxGraphModel dx="868" dy="482" grid="1" gridSize="10" guides="1" tooltips="1" connect="1" arrows="1" fold="1" page="1" pageScale="1" pageWidth="850" pageHeight="1100" math="0" shadow="0">
      <root>
        <mxCell id="0" />
        <mxCell id="1" parent="0" />
        <mxCell id="edB_ImQ5B8ZFfdH8kTXW-1" value="Parking Lot Owner" style="shape=umlActor;verticalLabelPosition=bottom;verticalAlign=top;html=1;outlineConnect=0;" vertex="1" parent="1">
          <mxGeometry x="375" y="50" width="50" height="100" as="geometry" />
        </mxCell>
        <mxCell id="edB_ImQ5B8ZFfdH8kTXW-2" value="Open Lot for Reservations" style="ellipse;whiteSpace=wrap;html=1;" vertex="1" parent="1">
          <mxGeometry x="330" y="220" width="140" height="70" as="geometry" />
        </mxCell>
        <mxCell id="edB_ImQ5B8ZFfdH8kTXW-5" value="" style="endArrow=none;html=1;" edge="1" parent="1">
          <mxGeometry width="50" height="50" relative="1" as="geometry">
            <mxPoint x="400" y="210" as="sourcePoint" />
            <mxPoint x="400" y="170" as="targetPoint" />
          </mxGeometry>
        </mxCell>
        <mxCell id="edB_ImQ5B8ZFfdH8kTXW-12" style="edgeStyle=orthogonalEdgeStyle;rounded=0;orthogonalLoop=1;jettySize=auto;html=1;exitX=0.5;exitY=0;exitDx=0;exitDy=0;entryX=0;entryY=1;entryDx=0;entryDy=0;" edge="1" parent="1" source="edB_ImQ5B8ZFfdH8kTXW-6" target="edB_ImQ5B8ZFfdH8kTXW-2">
          <mxGeometry relative="1" as="geometry" />
        </mxCell>
        <mxCell id="edB_ImQ5B8ZFfdH8kTXW-6" value="Select Event" style="ellipse;whiteSpace=wrap;html=1;" vertex="1" parent="1">
          <mxGeometry x="160" y="330" width="140" height="70" as="geometry" />
        </mxCell>
        <mxCell id="edB_ImQ5B8ZFfdH8kTXW-9" value="" style="edgeStyle=orthogonalEdgeStyle;rounded=0;orthogonalLoop=1;jettySize=auto;html=1;" edge="1" parent="1" source="edB_ImQ5B8ZFfdH8kTXW-7" target="edB_ImQ5B8ZFfdH8kTXW-2">
          <mxGeometry relative="1" as="geometry" />
        </mxCell>
        <mxCell id="edB_ImQ5B8ZFfdH8kTXW-7" value="Select Lot(s)" style="ellipse;whiteSpace=wrap;html=1;" vertex="1" parent="1">
          <mxGeometry x="330" y="380" width="140" height="70" as="geometry" />
        </mxCell>
        <mxCell id="edB_ImQ5B8ZFfdH8kTXW-10" style="edgeStyle=orthogonalEdgeStyle;rounded=0;orthogonalLoop=1;jettySize=auto;html=1;exitX=0.5;exitY=0;exitDx=0;exitDy=0;entryX=1;entryY=1;entryDx=0;entryDy=0;" edge="1" parent="1" source="edB_ImQ5B8ZFfdH8kTXW-8" target="edB_ImQ5B8ZFfdH8kTXW-2">
          <mxGeometry relative="1" as="geometry" />
        </mxCell>
        <mxCell id="edB_ImQ5B8ZFfdH8kTXW-8" value="Indicate available spots" style="ellipse;whiteSpace=wrap;html=1;" vertex="1" parent="1">
          <mxGeometry x="500" y="330" width="140" height="70" as="geometry" />
        </mxCell>
        <mxCell id="edB_ImQ5B8ZFfdH8kTXW-13" value="Includes" style="text;html=1;align=center;verticalAlign=middle;resizable=0;points=[];autosize=1;" vertex="1" parent="1">
          <mxGeometry x="260" y="290" width="60" height="20" as="geometry" />
        </mxCell>
        <mxCell id="edB_ImQ5B8ZFfdH8kTXW-14" value="Extends" style="text;html=1;align=center;verticalAlign=middle;resizable=0;points=[];autosize=1;" vertex="1" parent="1">
          <mxGeometry x="395" y="330" width="60" height="20" as="geometry" />
        </mxCell>
        <mxCell id="edB_ImQ5B8ZFfdH8kTXW-15" value="Extends" style="text;html=1;align=center;verticalAlign=middle;resizable=0;points=[];autosize=1;" vertex="1" parent="1">
          <mxGeometry x="480" y="290" width="60" height="20" as="geometry" />
        </mxCell>
      </root>
    </mxGraphModel>
  </diagram>
</mxfile>
